<svg id="eFbMQvk80DT1" xmlns="http://www.w3.org/2000/svg" xmlns:xlink="http://www.w3.org/1999/xlink" viewBox="0 0 20 20" shape-rendering="geometricPrecision" text-rendering="geometricPrecision"><path d="M18,5c.552285,0,1-.447715,1-1s-.447715-1-1-1L2,3c-.552285,0-1,.447715-1,1s.447715,1,1,1h16Zm0,4c.552285,0,1-.447715,1-1s-.447715-1-1-1L2,7c-.552285,0-1,.447715-1,1s.447715,1,1,1h16Zm1,3c0,.552285-.447715,1-1,1h-16c-.552285,0-1-.447715-1-1s.447715-1,1-1h16c.552285,0,1,.447715,1,1Zm-1,5c.552285,0,1-.447715,1-1s-.447715-1-1-1h-16c-.552285,0-1,.447715-1,1s.447715,1,1,1h16Z" fill="#fff" fill-rule="evenodd"/></svg>
